<?xml version="1.0" encoding="UTF-8" standalone="no"?>
<!-- Created with Inkscape (http://www.inkscape.org/) -->

<svg
   width="4096"
   height="2304"
   viewBox="0 0 1083.7333 609.60002"
   version="1.1"
   id="svg5"
   inkscape:version="1.1.2 (b8e25be833, 2022-02-05)"
   sodipodi:docname="bg.svg"
   inkscape:export-filename="S:\dev\navonapps_github_root\bg.png"
   inkscape:export-xdpi="96"
   inkscape:export-ydpi="96"
   xmlns:inkscape="http://www.inkscape.org/namespaces/inkscape"
   xmlns:sodipodi="http://sodipodi.sourceforge.net/DTD/sodipodi-0.dtd"
   xmlns="http://www.w3.org/2000/svg"
   xmlns:svg="http://www.w3.org/2000/svg">
  <sodipodi:namedview
     id="namedview7"
     pagecolor="#ffffff"
     bordercolor="#666666"
     borderopacity="1.0"
     inkscape:pageshadow="2"
     inkscape:pageopacity="0.0"
     inkscape:pagecheckerboard="0"
     inkscape:document-units="mm"
     showgrid="false"
     units="px"
     height="2304px"
     inkscape:snap-midpoints="true"
     inkscape:snap-global="false"
     inkscape:zoom="0.17772517"
     inkscape:cx="1718.9462"
     inkscape:cy="846.81309"
     inkscape:window-width="1920"
     inkscape:window-height="991"
     inkscape:window-x="-9"
     inkscape:window-y="-9"
     inkscape:window-maximized="1"
     inkscape:current-layer="layer1" />
  <defs
     id="defs2" />
  <g
     inkscape:label="Layer 1"
     inkscape:groupmode="layer"
     id="layer1">
    <g
       id="g11738"
       transform="matrix(0.98877109,0,0,0.98877109,-28.0175,-3.4827169)">
      <path
         style="fill:#cccccc;stroke:#000000;stroke-width:0.0637466px;stroke-linecap:butt;stroke-linejoin:miter;stroke-opacity:1"
         d="m 734.52681,203.58472 -52.18812,52.18813 h 34.79208 v 52.18813 h 34.79209 v -52.18813 h 34.79208 l -52.18813,-52.18813"
         id="path10707-5-7-9" />
      <path
         style="fill:#e6e6e6;stroke:#000000;stroke-width:0.0637466px;stroke-linecap:butt;stroke-linejoin:miter;stroke-opacity:1"
         d="m 779.06889,288.10584 -52.18812,52.18813 h 34.79208 v 52.18813 h 34.79209 v -52.18813 h 34.79208 l -52.18813,-52.18813"
         id="path10707-5-8-69" />
      <path
         style="fill:#b3b3b3;stroke:#000000;stroke-width:0.0637466px;stroke-linecap:butt;stroke-linejoin:miter;stroke-opacity:1"
         d="m 547.0651,145.42359 -52.18812,52.18813 h 34.79208 v 52.18813 h 34.79209 v -52.18813 h 34.79208 L 547.0651,145.42359"
         id="path10707-5-76" />
      <path
         style="fill:#e6e6e6;stroke:#000000;stroke-width:0.0637466px;stroke-linecap:butt;stroke-linejoin:miter;stroke-opacity:1"
         d="m 717.73857,358.75541 -52.18812,52.18813 h 34.79208 v 52.18813 h 34.79209 v -52.18813 h 34.79208 l -52.18813,-52.18813"
         id="path10707-2-9-8" />
      <path
         style="fill:#e6e6e6;stroke:#000000;stroke-width:0.0637466px;stroke-linecap:butt;stroke-linejoin:miter;stroke-opacity:1"
         d="m 835.80047,379.74188 -52.18812,52.18813 h 34.79208 v 52.18813 h 34.79209 v -52.18813 h 34.79208 l -52.18813,-52.18813"
         id="path10707-5-7-1-8" />
      <path
         style="fill:#ececec;stroke:#000000;stroke-width:0.0637466px;stroke-linecap:butt;stroke-linejoin:miter;stroke-opacity:1"
         d="m 828.92196,208.94461 -52.18812,52.18815 h 34.79208 v 52.18813 h 34.79209 v -52.18813 h 34.79208 l -52.18813,-52.18815"
         id="path10707-8" />
      <path
         style="fill:#b3b3b3;stroke:#000000;stroke-width:0.0637466px;stroke-linecap:butt;stroke-linejoin:miter;stroke-opacity:1"
         d="m 574.11239,245.74538 -52.18812,52.18813 h 34.79208 v 52.18813 h 34.79209 v -52.18813 h 34.79208 l -52.18813,-52.18813"
         id="path10707-5-7-2" />
      <path
         style="fill:#b3b3b3;stroke:#000000;stroke-width:0.0637466px;stroke-linecap:butt;stroke-linejoin:miter;stroke-opacity:1"
         d="m 508.52076,308.13427 -52.18812,52.18813 h 34.79208 v 52.18813 h 34.79209 V 360.3224 h 34.79208 l -52.18813,-52.18813"
         id="path10707-21-5" />
      <path
         style="fill:#b3b3b3;stroke:#000000;stroke-width:0.0637466px;stroke-linecap:butt;stroke-linejoin:miter;stroke-opacity:1"
         d="m 614.63392,331.17816 -52.18812,52.18813 h 34.79208 v 52.18813 h 34.79209 v -52.18813 h 34.79208 l -52.18813,-52.18813"
         id="path10707-5-8-6" />
      <path
         style="fill:#b3b3b3;stroke:#000000;stroke-width:0.0637466px;stroke-linecap:butt;stroke-linejoin:miter;stroke-opacity:1"
         d="m 536.59464,400.03742 -52.18812,52.18813 h 34.79208 v 52.18813 h 34.79209 v -52.18813 h 34.79208 l -52.18813,-52.18813"
         id="path10707-2-9-5" />
      <path
         style="fill:#999999;stroke:#000000;stroke-width:0.0637466px;stroke-linecap:butt;stroke-linejoin:miter;stroke-opacity:1"
         d="m 437.55761,369.95134 -52.18812,52.18813 h 34.79208 v 52.18813 h 34.79209 v -52.18813 h 34.79208 l -52.18813,-52.18813"
         id="path10707-5-7-1" />
      <path
         style="fill:#b3b3b3;stroke:#000000;stroke-width:0.0637466px;stroke-linecap:butt;stroke-linejoin:miter;stroke-opacity:1"
         d="m 104.51291,397.12882 -52.188121,52.18813 h 34.79208 v 52.18813 h 34.792091 v -52.18813 h 34.79208 l -52.18813,-52.18813"
         id="path10707-0" />
      <path
         style="fill:#b3b3b3;stroke:#000000;stroke-width:0.0637466px;stroke-linecap:butt;stroke-linejoin:miter;stroke-opacity:1"
         d="m 480.60593,211.86256 -52.18812,52.18813 h 34.79208 v 52.18813 h 34.79209 v -52.18813 h 34.79208 l -52.18813,-52.18813"
         id="path10707-2-4" />
      <path
         style="fill:#b3b3b3;stroke:#000000;stroke-width:0.0637466px;stroke-linecap:butt;stroke-linejoin:miter;stroke-opacity:1"
         d="m 636.96587,422.48039 -52.18812,52.18813 h 34.79208 v 52.18813 h 34.79209 V 474.66852 H 689.154 l -52.18813,-52.18813"
         id="path10707-5-7-1-6" />
      <path
         style="fill:#cccccc;stroke:#000000;stroke-width:0.0637466px;stroke-linecap:butt;stroke-linejoin:miter;stroke-opacity:1"
         d="m 614.79298,82.833466 -52.18812,52.188144 h 34.79208 v 52.18813 h 34.79209 v -52.18813 h 34.79208 L 614.79298,82.833466"
         id="path10707-9" />
      <path
         style="fill:#cccccc;stroke:#000000;stroke-width:0.0637466px;stroke-linecap:butt;stroke-linejoin:miter;stroke-opacity:1"
         d="m 694.27274,125.43484 -52.18812,52.18812 h 34.79208 v 52.18813 h 34.79209 v -52.18813 h 34.79208 l -52.18813,-52.18812"
         id="path10707-5-2" />
      <path
         style="fill:#cccccc;stroke:#000000;stroke-width:0.0637466px;stroke-linecap:butt;stroke-linejoin:miter;stroke-opacity:1"
         d="m 635.09451,185.26361 -52.18812,52.18813 h 34.79208 v 52.18813 h 34.79209 v -52.18813 h 34.79208 l -52.18813,-52.18813"
         id="path10707-2-8" />
      <path
         style="fill:#cccccc;stroke:#000000;stroke-width:0.0637466px;stroke-linecap:butt;stroke-linejoin:miter;stroke-opacity:1"
         d="m 677.08811,268.58147 -52.18812,52.18813 h 34.79208 v 52.18813 h 34.79209 V 320.7696 h 34.79208 l -52.18813,-52.18813"
         id="path10707-21-8" />
      <path
         style="fill:#ececec;stroke:#000000;stroke-width:0.0637466px;stroke-linecap:butt;stroke-linejoin:miter;stroke-opacity:1"
         d="m 1088.7303,406.56167 -52.1881,52.18813 h 34.792 v 52.18813 h 34.7921 V 458.7498 h 34.7921 l -52.1881,-52.18813"
         id="path10707-5-9" />
      <path
         style="fill:#ececec;stroke:#000000;stroke-width:0.0637466px;stroke-linecap:butt;stroke-linejoin:miter;stroke-opacity:1"
         d="m 916.54454,177.77669 -52.18812,52.18813 h 34.79208 v 52.18813 h 34.79209 v -52.18813 h 34.79208 l -52.18813,-52.18813"
         id="path10707-5-7-3" />
      <path
         style="fill:#ececec;stroke:#000000;stroke-width:0.0637466px;stroke-linecap:butt;stroke-linejoin:miter;stroke-opacity:1"
         d="m 946.56174,364.90721 -52.18812,52.18813 h 34.79208 v 52.18813 h 34.79209 v -52.18813 h 34.79214 l -52.18819,-52.18813"
         id="path10707-2-0" />
      <path
         style="fill:#ececec;stroke:#000000;stroke-width:0.0637466px;stroke-linecap:butt;stroke-linejoin:miter;stroke-opacity:1"
         d="m 973.89126,261.76224 -52.18812,52.18813 h 34.79208 v 52.18813 h 34.79209 v -52.18813 h 34.79229 l -52.18834,-52.18813"
         id="path10707-5-8-2" />
      <path
         style="fill:#ececec;stroke:#000000;stroke-width:0.0637466px;stroke-linecap:butt;stroke-linejoin:miter;stroke-opacity:1"
         d="m 885.46691,282.82369 -52.18812,52.18813 h 34.79208 v 52.18813 h 34.79209 v -52.18813 h 34.79208 l -52.18813,-52.18813"
         id="path10707-21-3" />
      <path
         style="fill:#ececec;stroke:#000000;stroke-width:0.0637466px;stroke-linecap:butt;stroke-linejoin:miter;stroke-opacity:1"
         d="m 934.35154,459.69715 -52.18812,52.18813 h 34.79208 v 52.18813 h 34.79209 v -52.18813 h 34.79208 l -52.18813,-52.18813"
         id="path10707-2-9-1" />
      <path
         style="fill:#ececec;stroke:#000000;stroke-width:0.0637466px;stroke-linecap:butt;stroke-linejoin:miter;stroke-opacity:1"
         d="m 1034.8315,332.62586 -52.18809,52.18813 h 34.79199 v 52.18813 h 34.7923 v -52.18813 h 34.792 l -52.1882,-52.18813"
         id="path10707-5-7-1-7" />
      <path
         style="fill:#808080;stroke:#000000;stroke-width:0.0637466px;stroke-linecap:butt;stroke-linejoin:miter;stroke-opacity:1"
         d="m 215.94616,220.5051 -52.18812,52.18813 h 34.79208 v 52.18813 h 34.79209 v -52.18813 h 34.79208 L 215.94616,220.5051"
         id="path10707-5-7-20" />
      <path
         style="fill:#999999;stroke:#000000;stroke-width:0.0637466px;stroke-linecap:butt;stroke-linejoin:miter;stroke-opacity:1"
         d="m 63.981751,302.30164 -52.18812,52.18812 h 34.79208 v 52.18813 h 34.79209 V 354.48976 H 116.16989 L 63.981751,302.30164"
         id="path10707-5" />
      <path
         style="fill:#999999;stroke:#000000;stroke-width:0.0637466px;stroke-linecap:butt;stroke-linejoin:miter;stroke-opacity:1"
         d="m 388.70994,169.15112 -52.18812,52.18813 h 34.79208 v 52.18813 h 34.79209 v -52.18813 h 34.79208 l -52.18813,-52.18813"
         id="path10707-5-7" />
      <path
         style="fill:#999999;stroke:#000000;stroke-width:0.0637466px;stroke-linecap:butt;stroke-linejoin:miter;stroke-opacity:1"
         d="m 317.05927,236.67936 -52.18812,52.18813 h 34.79208 v 52.18813 h 34.79209 v -52.18813 h 34.79208 l -52.18813,-52.18813"
         id="path10707-21" />
      <path
         style="fill:#999999;stroke:#000000;stroke-width:0.0637466px;stroke-linecap:butt;stroke-linejoin:miter;stroke-opacity:1"
         d="m 346.75968,329.99078 -52.18812,52.18813 h 34.79208 v 52.18813 h 34.79209 v -52.18813 h 34.79208 l -52.18813,-52.18813"
         id="path10707-2-9" />
      <path
         style="fill:#999999;stroke:#000000;stroke-width:0.0637466px;stroke-linecap:butt;stroke-linejoin:miter;stroke-opacity:1"
         d="m 252.37487,59.48467 -52.18812,52.18811 h 34.79208 v 52.18813 h 34.79209 V 111.67278 H 304.563 L 252.37487,59.48467"
         id="path10707" />
      <path
         style="fill:#999999;stroke:#000000;stroke-width:0.0637466px;stroke-linecap:butt;stroke-linejoin:miter;stroke-opacity:1"
         d="m 286.79078,147.16454 -52.18812,52.18813 h 34.79208 v 52.18813 h 34.79209 v -52.18813 h 34.79208 l -52.18813,-52.18813"
         id="path10707-2" />
      <path
         style="fill:#999999;stroke:#000000;stroke-width:0.0637466px;stroke-linecap:butt;stroke-linejoin:miter;stroke-opacity:1"
         d="m 411.47631,270.48343 -52.18812,52.18813 h 34.79208 v 52.18813 h 34.79209 v -52.18813 h 34.79208 l -52.18813,-52.18813"
         id="path10707-5-8" />
      <path
         style="fill:#808080;stroke:#000000;stroke-width:0.0637466px;stroke-linecap:butt;stroke-linejoin:miter;stroke-opacity:1"
         d="m 252.8821,306.36374 -52.18812,52.18813 h 34.79208 V 410.74 h 34.79209 v -52.18813 h 34.79208 L 252.8821,306.36374"
         id="path10707-5-8-5" />
      <path
         style="fill:#808080;stroke:#000000;stroke-width:0.0637466px;stroke-linecap:butt;stroke-linejoin:miter;stroke-opacity:1"
         d="m 286.2775,394.13482 -52.18812,52.18813 h 34.79208 v 52.18813 h 34.79209 v -52.18813 h 34.79208 L 286.2775,394.13482"
         id="path10707-5-7-1-9" />
      <path
         style="fill:#808080;stroke:#000000;stroke-width:0.0637466px;stroke-linecap:butt;stroke-linejoin:miter;stroke-opacity:1"
         d="M 85.845914,116.42897 33.657793,168.6171 h 34.79208 v 52.18813 H 103.24197 V 168.6171 h 34.79207 L 85.845914,116.42897"
         id="path10707-1" />
      <path
         style="fill:#808080;stroke:#000000;stroke-width:0.0637466px;stroke-linecap:butt;stroke-linejoin:miter;stroke-opacity:1"
         d="m 182.84892,130.76165 -52.18812,52.18813 h 34.79208 v 52.18813 h 34.79209 v -52.18813 h 34.79208 l -52.18813,-52.18813"
         id="path10707-5-4" />
      <path
         style="fill:#808080;stroke:#000000;stroke-width:0.0637466px;stroke-linecap:butt;stroke-linejoin:miter;stroke-opacity:1"
         d="m 116.14067,212.44335 -52.188134,52.18813 h 34.792082 v 52.18813 h 34.792102 v -52.18813 h 34.79208 l -52.18813,-52.18813"
         id="path10707-2-00" />
      <path
         style="fill:#808080;stroke:#000000;stroke-width:0.0637466px;stroke-linecap:butt;stroke-linejoin:miter;stroke-opacity:1"
         d="m 151.87198,304.40213 -52.188117,52.18813 h 34.792077 v 52.18813 h 34.79209 v -52.18813 h 34.79208 l -52.18813,-52.18813"
         id="path10707-21-1" />
      <path
         style="fill:#808080;stroke:#000000;stroke-width:0.0637466px;stroke-linecap:butt;stroke-linejoin:miter;stroke-opacity:1"
         d="m 196.20768,381.58474 -52.18812,52.18813 h 34.79208 V 485.961 h 34.79209 v -52.18813 h 34.79208 l -52.18813,-52.18813"
         id="path10707-2-9-6" />
    </g>
  </g>
</svg>
